<svg width="278" height="278" viewBox="0 0 278 278" fill="none" xmlns="http://www.w3.org/2000/svg">
<g filter="url(#filter0_dd)">
<rect x="51.7656" y="51.8265" width="173.701" height="173.701" rx="46.435" fill="#EBECF0"/>
<rect x="51.7656" y="51.8265" width="173.701" height="173.701" rx="46.435" fill="url(#paint0_linear)" fill-opacity="0.4" style="mix-blend-mode:soft-light"/>
</g>
<path d="M170.672 165.922V152.579H179.748V170.733L179.748 179.809H152.518V170.733H162.646L155.281 163.367L161.699 156.949L170.672 165.922Z" fill="url(#paint1_linear)"/>
<path d="M179.748 98.1183V125.349H170.672V113.613L144.517 139.768L152.898 148.149L146.48 154.567L138.099 146.186L113.552 170.733H125.288V179.809L98.0572 179.809L98.0572 152.579H107.134V164.314L131.68 139.768L107.134 115.221L107.134 125.349L98.0571 125.349L98.0572 98.1183L125.288 98.1183L125.288 107.195H111.944L138.099 133.349L164.253 107.195L152.518 107.195V98.1183L179.748 98.1183Z" fill="url(#paint2_linear)"/>
<defs>
<filter id="filter0_dd" x="0.171213" y="0.232126" width="276.89" height="276.89" filterUnits="userSpaceOnUse" color-interpolation-filters="sRGB">
<feFlood flood-opacity="0" result="BackgroundImageFix"/>
<feColorMatrix in="SourceAlpha" type="matrix" values="0 0 0 0 0 0 0 0 0 0 0 0 0 0 0 0 0 0 127 0"/>
<feOffset dx="17.1981" dy="17.1981"/>
<feGaussianBlur stdDeviation="17.1981"/>
<feColorMatrix type="matrix" values="0 0 0 0 0.6512 0 0 0 0 0.66896 0 0 0 0 0.74 0 0 0 1 0"/>
<feBlend mode="normal" in2="BackgroundImageFix" result="effect1_dropShadow"/>
<feColorMatrix in="SourceAlpha" type="matrix" values="0 0 0 0 0 0 0 0 0 0 0 0 0 0 0 0 0 0 127 0"/>
<feOffset dx="-17.1981" dy="-17.1981"/>
<feGaussianBlur stdDeviation="17.1981"/>
<feColorMatrix type="matrix" values="0 0 0 0 0.979167 0 0 0 0 0.983333 0 0 0 0 1 0 0 0 1 0"/>
<feBlend mode="normal" in2="effect1_dropShadow" result="effect2_dropShadow"/>
<feBlend mode="normal" in="SourceGraphic" in2="effect2_dropShadow" result="shape"/>
</filter>
<linearGradient id="paint0_linear" x1="-35.085" y1="138.677" x2="138.616" y2="312.378" gradientUnits="userSpaceOnUse">
<stop/>
<stop offset="1" stop-color="white"/>
</linearGradient>
<linearGradient id="paint1_linear" x1="89.888" y1="188.265" x2="189.118" y2="95.5949" gradientUnits="userSpaceOnUse">
<stop offset="0.458333" stop-color="#9E9EB1"/>
<stop offset="1" stop-color="#9595AE" stop-opacity="0.13"/>
</linearGradient>
<linearGradient id="paint2_linear" x1="89.888" y1="188.265" x2="189.118" y2="95.5949" gradientUnits="userSpaceOnUse">
<stop offset="0.458333" stop-color="#9E9EB1"/>
<stop offset="1" stop-color="#9595AE" stop-opacity="0.13"/>
</linearGradient>
</defs>
</svg>
