<svg width="278" height="278" viewBox="0 0 278 278" fill="none" xmlns="http://www.w3.org/2000/svg">
<g filter="url(#filter0_dd)">
<rect x="51.7656" y="52.2103" width="173.701" height="173.701" rx="46.435" fill="#EBECF0"/>
<rect x="51.7656" y="52.2103" width="173.701" height="173.701" rx="46.435" fill="url(#paint0_linear)" fill-opacity="0.4" style="mix-blend-mode:soft-light"/>
</g>
<path fill-rule="evenodd" clip-rule="evenodd" d="M161.595 116.655C161.595 129.188 151.435 139.347 138.903 139.347C126.371 139.347 116.211 129.188 116.211 116.655C116.211 104.123 126.371 93.9635 138.903 93.9635C151.435 93.9635 161.595 104.123 161.595 116.655ZM152.518 116.655C152.518 124.175 146.422 130.271 138.903 130.271C131.384 130.271 125.288 124.175 125.288 116.655C125.288 109.136 131.384 103.04 138.903 103.04C146.422 103.04 152.518 109.136 152.518 116.655Z" fill="url(#paint1_linear)"/>
<path d="M170.672 159.477C162.468 156.862 148.509 152.963 138.903 152.963C129.297 152.963 115.337 156.862 107.134 159.477V175.655H161.595L161.595 184.732H98.0574V156.132C98.0574 154.228 99.2363 152.532 101.04 151.924C108.098 149.541 126.185 143.886 138.903 143.886C151.621 143.886 169.708 149.541 176.766 151.924C178.57 152.532 179.749 154.228 179.749 156.132V184.732H170.672L170.672 159.477Z" fill="url(#paint2_linear)"/>
<defs>
<filter id="filter0_dd" x="0.171213" y="0.615915" width="276.89" height="276.89" filterUnits="userSpaceOnUse" color-interpolation-filters="sRGB">
<feFlood flood-opacity="0" result="BackgroundImageFix"/>
<feColorMatrix in="SourceAlpha" type="matrix" values="0 0 0 0 0 0 0 0 0 0 0 0 0 0 0 0 0 0 127 0"/>
<feOffset dx="17.1981" dy="17.1981"/>
<feGaussianBlur stdDeviation="17.1981"/>
<feColorMatrix type="matrix" values="0 0 0 0 0.6512 0 0 0 0 0.66896 0 0 0 0 0.74 0 0 0 1 0"/>
<feBlend mode="normal" in2="BackgroundImageFix" result="effect1_dropShadow"/>
<feColorMatrix in="SourceAlpha" type="matrix" values="0 0 0 0 0 0 0 0 0 0 0 0 0 0 0 0 0 0 127 0"/>
<feOffset dx="-17.1981" dy="-17.1981"/>
<feGaussianBlur stdDeviation="17.1981"/>
<feColorMatrix type="matrix" values="0 0 0 0 0.979167 0 0 0 0 0.983333 0 0 0 0 1 0 0 0 1 0"/>
<feBlend mode="normal" in2="effect1_dropShadow" result="effect2_dropShadow"/>
<feBlend mode="normal" in="SourceGraphic" in2="effect2_dropShadow" result="shape"/>
</filter>
<linearGradient id="paint0_linear" x1="-35.085" y1="139.061" x2="138.616" y2="312.762" gradientUnits="userSpaceOnUse">
<stop/>
<stop offset="1" stop-color="white"/>
</linearGradient>
<linearGradient id="paint1_linear" x1="97.8581" y1="93.8595" x2="183.954" y2="175.158" gradientUnits="userSpaceOnUse">
<stop offset="0.458333" stop-color="#9E9EB1"/>
<stop offset="1" stop-color="#9595AE" stop-opacity="0.13"/>
</linearGradient>
<linearGradient id="paint2_linear" x1="97.8581" y1="93.8595" x2="183.954" y2="175.158" gradientUnits="userSpaceOnUse">
<stop offset="0.458333" stop-color="#9E9EB1"/>
<stop offset="1" stop-color="#9595AE" stop-opacity="0.13"/>
</linearGradient>
</defs>
</svg>
