<svg width="278" height="278" viewBox="0 0 278 278" fill="none" xmlns="http://www.w3.org/2000/svg">
<g filter="url(#filter0_dd)">
<rect x="52.4573" y="52.2103" width="173.701" height="173.701" rx="46.435" fill="#EBECF0"/>
<rect x="52.4573" y="52.2103" width="173.701" height="173.701" rx="46.435" fill="url(#paint0_linear)" fill-opacity="0.4" style="mix-blend-mode:soft-light"/>
</g>
<path fill-rule="evenodd" clip-rule="evenodd" d="M121.441 134.809C129.969 134.809 137.123 128.93 139.071 121.003L166.539 121.003V112.404L139.094 112.404C137.18 104.429 130.003 98.5021 121.441 98.5021C113.086 98.5021 106.049 104.147 103.936 111.831L94.3064 111.831V121.003H103.811C105.759 128.93 112.914 134.809 121.441 134.809ZM121.441 125.732C126.454 125.732 130.518 121.669 130.518 116.656C130.518 111.643 126.454 107.579 121.441 107.579C116.428 107.579 112.364 111.643 112.364 116.656C112.364 121.669 116.428 125.732 121.441 125.732Z" fill="url(#paint1_linear)"/>
<path d="M184.979 121.194L175.902 121.194V112.117H184.979V121.194Z" fill="url(#paint2_linear)"/>
<path fill-rule="evenodd" clip-rule="evenodd" d="M157.748 180.193C166.31 180.193 173.488 174.266 175.401 166.292H184.883V157.692H175.378C173.43 149.766 166.276 143.886 157.748 143.886C149.221 143.886 142.067 149.766 140.119 157.692H94.3064V166.292H140.095C142.009 174.266 149.187 180.193 157.748 180.193ZM157.748 171.116C162.761 171.116 166.825 167.053 166.825 162.04C166.825 157.027 162.761 152.963 157.748 152.963C152.735 152.963 148.672 157.027 148.672 162.04C148.672 167.053 152.735 171.116 157.748 171.116Z" fill="url(#paint3_linear)"/>
<defs>
<filter id="filter0_dd" x="0.862864" y="0.615915" width="276.89" height="276.89" filterUnits="userSpaceOnUse" color-interpolation-filters="sRGB">
<feFlood flood-opacity="0" result="BackgroundImageFix"/>
<feColorMatrix in="SourceAlpha" type="matrix" values="0 0 0 0 0 0 0 0 0 0 0 0 0 0 0 0 0 0 127 0"/>
<feOffset dx="17.1981" dy="17.1981"/>
<feGaussianBlur stdDeviation="17.1981"/>
<feColorMatrix type="matrix" values="0 0 0 0 0.6512 0 0 0 0 0.66896 0 0 0 0 0.74 0 0 0 1 0"/>
<feBlend mode="normal" in2="BackgroundImageFix" result="effect1_dropShadow"/>
<feColorMatrix in="SourceAlpha" type="matrix" values="0 0 0 0 0 0 0 0 0 0 0 0 0 0 0 0 0 0 127 0"/>
<feOffset dx="-17.1981" dy="-17.1981"/>
<feGaussianBlur stdDeviation="17.1981"/>
<feColorMatrix type="matrix" values="0 0 0 0 0.979167 0 0 0 0 0.983333 0 0 0 0 1 0 0 0 1 0"/>
<feBlend mode="normal" in2="effect1_dropShadow" result="effect2_dropShadow"/>
<feBlend mode="normal" in="SourceGraphic" in2="effect2_dropShadow" result="shape"/>
</filter>
<linearGradient id="paint0_linear" x1="-34.3933" y1="139.061" x2="139.308" y2="312.762" gradientUnits="userSpaceOnUse">
<stop/>
<stop offset="1" stop-color="white"/>
</linearGradient>
<linearGradient id="paint1_linear" x1="94.0852" y1="98.4085" x2="169.4" y2="197.289" gradientUnits="userSpaceOnUse">
<stop offset="0.458333" stop-color="#9E9EB1"/>
<stop offset="1" stop-color="#9595AE" stop-opacity="0.13"/>
</linearGradient>
<linearGradient id="paint2_linear" x1="94.0852" y1="98.4085" x2="169.4" y2="197.289" gradientUnits="userSpaceOnUse">
<stop offset="0.458333" stop-color="#9E9EB1"/>
<stop offset="1" stop-color="#9595AE" stop-opacity="0.13"/>
</linearGradient>
<linearGradient id="paint3_linear" x1="94.0852" y1="98.4085" x2="169.4" y2="197.289" gradientUnits="userSpaceOnUse">
<stop offset="0.458333" stop-color="#9E9EB1"/>
<stop offset="1" stop-color="#9595AE" stop-opacity="0.13"/>
</linearGradient>
</defs>
</svg>
