<svg width="278" height="278" viewBox="0 0 278 278" fill="none" xmlns="http://www.w3.org/2000/svg">
<g filter="url(#filter0_dd)">
<rect x="52.1494" y="52.2103" width="173.701" height="173.701" rx="46.435" fill="#EBECF0"/>
<rect x="52.1494" y="52.2103" width="173.701" height="173.701" rx="46.435" fill="url(#paint0_linear)" fill-opacity="0.4" style="mix-blend-mode:soft-light"/>
</g>
<path fill-rule="evenodd" clip-rule="evenodd" d="M130.21 93.9635V103.04H148.364V93.9635H157.44V103.04H175.594C178.1 103.04 180.132 105.072 180.132 107.579V180.193C180.132 182.699 178.1 184.731 175.594 184.731H171.055L171.056 139.347L107.518 139.347L107.518 175.655H161.979V184.731H102.98C100.473 184.731 98.4412 182.699 98.4412 180.193V107.579C98.4412 105.072 100.473 103.04 102.98 103.04H121.133V93.9635H130.21ZM130.21 121.194H121.133V112.117H107.518V130.271H171.056V112.117H157.44V121.194H148.364V112.117H130.21V121.194Z" fill="url(#paint1_linear)"/>
<defs>
<filter id="filter0_dd" x="0.555002" y="0.615915" width="276.89" height="276.89" filterUnits="userSpaceOnUse" color-interpolation-filters="sRGB">
<feFlood flood-opacity="0" result="BackgroundImageFix"/>
<feColorMatrix in="SourceAlpha" type="matrix" values="0 0 0 0 0 0 0 0 0 0 0 0 0 0 0 0 0 0 127 0"/>
<feOffset dx="17.1981" dy="17.1981"/>
<feGaussianBlur stdDeviation="17.1981"/>
<feColorMatrix type="matrix" values="0 0 0 0 0.6512 0 0 0 0 0.66896 0 0 0 0 0.74 0 0 0 1 0"/>
<feBlend mode="normal" in2="BackgroundImageFix" result="effect1_dropShadow"/>
<feColorMatrix in="SourceAlpha" type="matrix" values="0 0 0 0 0 0 0 0 0 0 0 0 0 0 0 0 0 0 127 0"/>
<feOffset dx="-17.1981" dy="-17.1981"/>
<feGaussianBlur stdDeviation="17.1981"/>
<feColorMatrix type="matrix" values="0 0 0 0 0.979167 0 0 0 0 0.983333 0 0 0 0 1 0 0 0 1 0"/>
<feBlend mode="normal" in2="effect1_dropShadow" result="effect2_dropShadow"/>
<feBlend mode="normal" in="SourceGraphic" in2="effect2_dropShadow" result="shape"/>
</filter>
<linearGradient id="paint0_linear" x1="-34.7012" y1="139.061" x2="139" y2="312.762" gradientUnits="userSpaceOnUse">
<stop/>
<stop offset="1" stop-color="white"/>
</linearGradient>
<linearGradient id="paint1_linear" x1="98.2419" y1="93.8595" x2="182.745" y2="177.537" gradientUnits="userSpaceOnUse">
<stop offset="0.458333" stop-color="#9E9EB1"/>
<stop offset="1" stop-color="#9595AE" stop-opacity="0.13"/>
</linearGradient>
</defs>
</svg>
