<svg width="278" height="278" viewBox="0 0 278 278" fill="none" xmlns="http://www.w3.org/2000/svg">
<g filter="url(#filter0_dd)">
<rect x="51.8413" y="52.2103" width="173.701" height="173.701" rx="46.435" fill="#EBECF0"/>
<rect x="51.8413" y="52.2103" width="173.701" height="173.701" rx="46.435" fill="url(#paint0_linear)" fill-opacity="0.4" style="mix-blend-mode:soft-light"/>
</g>
<path d="M138.979 148.424C139.785 148.424 140.568 148.319 141.312 148.121L148.137 155.025C145.448 156.599 142.319 157.501 138.979 157.501C128.953 157.501 120.825 149.373 120.825 139.348C120.825 129.322 128.953 121.194 138.979 121.194C149.004 121.194 157.132 129.322 157.132 139.348C157.132 142.734 156.205 145.904 154.59 148.617L147.748 141.697C147.949 140.947 148.055 140.16 148.055 139.348C148.055 134.335 143.991 130.271 138.979 130.271C133.966 130.271 129.902 134.335 129.902 139.348C129.902 144.36 133.966 148.424 138.979 148.424Z" fill="url(#paint1_linear)"/>
<path fill-rule="evenodd" clip-rule="evenodd" d="M150.007 96.5184L152.385 106.033C155.513 107.301 158.423 108.994 161.044 111.04L170.482 108.341C172.484 107.768 174.619 108.631 175.66 110.435L182.438 122.174C183.479 123.978 183.16 126.259 181.663 127.706L174.607 134.528C174.833 136.162 174.95 137.831 174.95 139.526C174.95 141.223 174.833 142.891 174.607 144.525L181.663 151.348C183.16 152.796 183.48 155.076 182.439 156.88L175.661 168.619C174.619 170.423 172.484 171.286 170.482 170.714L161.042 168.013C158.409 170.07 155.483 171.77 152.337 173.039L149.903 182.559C149.389 184.568 147.579 185.973 145.506 185.973H132.049C129.966 185.973 128.151 184.556 127.646 182.535L125.267 173.02C122.139 171.753 119.229 170.06 116.609 168.014L107.17 170.714C105.168 171.287 103.033 170.424 101.992 168.62L95.2138 156.88C94.1725 155.077 94.4923 152.796 95.9894 151.349L103.044 144.527C102.818 142.893 102.701 141.223 102.701 139.526C102.701 137.83 102.818 136.161 103.044 134.526L95.9893 127.705C94.4922 126.257 94.1724 123.977 95.2136 122.173L101.991 110.434C103.033 108.63 105.168 107.767 107.17 108.339L116.608 111.039C119.229 108.993 122.139 107.3 125.267 106.033L127.645 96.5184C128.15 94.498 129.966 93.0807 132.048 93.0807H145.604C147.686 93.0807 149.501 94.498 150.007 96.5184ZM144.699 112.712L148.976 114.445C151.313 115.392 153.491 116.659 155.456 118.194L159.098 121.038L169.571 118.042L172.806 123.644L164.984 131.207L165.616 135.773C165.785 136.995 165.873 138.248 165.873 139.526C165.873 140.805 165.785 142.058 165.616 143.281L164.984 147.847L172.806 155.41L169.572 161.012L159.097 158.016L155.455 160.86C153.48 162.402 151.29 163.674 148.94 164.622L144.681 166.341L141.982 176.896H135.592L132.953 166.341L128.676 164.608C126.339 163.661 124.161 162.395 122.196 160.86L118.555 158.017L108.081 161.013L104.846 155.411L112.667 147.848L112.035 143.282C111.866 142.059 111.777 140.806 111.777 139.526C111.777 138.247 111.866 136.994 112.035 135.771L112.667 131.205L104.846 123.643L108.08 118.041L118.554 121.037L122.195 118.193C124.161 116.658 126.339 115.392 128.675 114.445L132.953 112.712L135.591 102.157H142.06L144.699 112.712Z" fill="url(#paint2_linear)"/>
<defs>
<filter id="filter0_dd" x="0.246897" y="0.615915" width="276.89" height="276.89" filterUnits="userSpaceOnUse" color-interpolation-filters="sRGB">
<feFlood flood-opacity="0" result="BackgroundImageFix"/>
<feColorMatrix in="SourceAlpha" type="matrix" values="0 0 0 0 0 0 0 0 0 0 0 0 0 0 0 0 0 0 127 0"/>
<feOffset dx="17.1981" dy="17.1981"/>
<feGaussianBlur stdDeviation="17.1981"/>
<feColorMatrix type="matrix" values="0 0 0 0 0.6512 0 0 0 0 0.66896 0 0 0 0 0.74 0 0 0 1 0"/>
<feBlend mode="normal" in2="BackgroundImageFix" result="effect1_dropShadow"/>
<feColorMatrix in="SourceAlpha" type="matrix" values="0 0 0 0 0 0 0 0 0 0 0 0 0 0 0 0 0 0 127 0"/>
<feOffset dx="-17.1981" dy="-17.1981"/>
<feGaussianBlur stdDeviation="17.1981"/>
<feColorMatrix type="matrix" values="0 0 0 0 0.979167 0 0 0 0 0.983333 0 0 0 0 1 0 0 0 1 0"/>
<feBlend mode="normal" in2="effect1_dropShadow" result="effect2_dropShadow"/>
<feBlend mode="normal" in="SourceGraphic" in2="effect2_dropShadow" result="shape"/>
</filter>
<linearGradient id="paint0_linear" x1="-35.0093" y1="139.061" x2="138.692" y2="312.762" gradientUnits="userSpaceOnUse">
<stop/>
<stop offset="1" stop-color="white"/>
</linearGradient>
<linearGradient id="paint1_linear" x1="94.3897" y1="92.9743" x2="182.9" y2="173.699" gradientUnits="userSpaceOnUse">
<stop offset="0.458333" stop-color="#9E9EB1"/>
<stop offset="1" stop-color="#9595AE" stop-opacity="0.13"/>
</linearGradient>
<linearGradient id="paint2_linear" x1="94.3897" y1="92.9743" x2="182.9" y2="173.699" gradientUnits="userSpaceOnUse">
<stop offset="0.458333" stop-color="#9E9EB1"/>
<stop offset="1" stop-color="#9595AE" stop-opacity="0.13"/>
</linearGradient>
</defs>
</svg>
