<svg width="278" height="278" viewBox="0 0 278 278" fill="none" xmlns="http://www.w3.org/2000/svg">
<g filter="url(#filter0_dd)">
<rect x="52.1494" y="51.9019" width="173.701" height="173.701" rx="46.435" fill="#EBECF0"/>
<rect x="52.1494" y="51.9019" width="173.701" height="173.701" rx="46.435" fill="url(#paint0_linear)" fill-opacity="0.4" style="mix-blend-mode:soft-light"/>
</g>
<path d="M162.476 111.102C147.047 98.2955 124.157 100.421 111.35 115.85C98.5425 131.279 100.668 154.169 116.097 166.976L110.3 173.961C91.0136 157.952 88.3565 129.339 104.365 110.053C120.374 90.7666 148.987 88.1095 168.273 104.118L162.476 111.102Z" fill="url(#paint1_linear)"/>
<path d="M157.44 134.501V143.578L121.133 143.578V134.501H157.44Z" fill="url(#paint2_linear)"/>
<path d="M150.236 173.661C138.862 177.247 125.956 175.16 116.097 166.976L110.3 173.961C123.873 185.227 142.064 187.249 157.231 180.736L150.236 173.661Z" fill="url(#paint3_linear)"/>
<path d="M158.97 169.56L165.463 176.128C168.65 173.876 171.596 171.172 174.208 168.026C174.752 167.37 175.275 166.704 175.776 166.027L169.299 159.476C168.657 160.416 167.965 161.335 167.224 162.229C164.795 165.155 162.004 167.602 158.97 169.56Z" fill="url(#paint4_linear)"/>
<path d="M168.273 104.118C184.412 117.515 188.906 139.737 180.563 157.934L173.611 150.903C178.405 137.026 174.44 121.033 162.476 111.102L168.273 104.118Z" fill="url(#paint5_linear)"/>
<defs>
<filter id="filter0_dd" x="0.555002" y="0.307444" width="276.89" height="276.89" filterUnits="userSpaceOnUse" color-interpolation-filters="sRGB">
<feFlood flood-opacity="0" result="BackgroundImageFix"/>
<feColorMatrix in="SourceAlpha" type="matrix" values="0 0 0 0 0 0 0 0 0 0 0 0 0 0 0 0 0 0 127 0"/>
<feOffset dx="17.1981" dy="17.1981"/>
<feGaussianBlur stdDeviation="17.1981"/>
<feColorMatrix type="matrix" values="0 0 0 0 0.6512 0 0 0 0 0.66896 0 0 0 0 0.74 0 0 0 1 0"/>
<feBlend mode="normal" in2="BackgroundImageFix" result="effect1_dropShadow"/>
<feColorMatrix in="SourceAlpha" type="matrix" values="0 0 0 0 0 0 0 0 0 0 0 0 0 0 0 0 0 0 127 0"/>
<feOffset dx="-17.1981" dy="-17.1981"/>
<feGaussianBlur stdDeviation="17.1981"/>
<feColorMatrix type="matrix" values="0 0 0 0 0.979167 0 0 0 0 0.983333 0 0 0 0 1 0 0 0 1 0"/>
<feBlend mode="normal" in2="effect1_dropShadow" result="effect2_dropShadow"/>
<feBlend mode="normal" in="SourceGraphic" in2="effect2_dropShadow" result="shape"/>
</filter>
<linearGradient id="paint0_linear" x1="-34.7012" y1="138.752" x2="139" y2="312.454" gradientUnits="userSpaceOnUse">
<stop/>
<stop offset="1" stop-color="white"/>
</linearGradient>
<linearGradient id="paint1_linear" x1="93.6811" y1="93.5516" x2="175.784" y2="180.268" gradientUnits="userSpaceOnUse">
<stop offset="0.458333" stop-color="#9E9EB1"/>
<stop offset="1" stop-color="#9595AE" stop-opacity="0.13"/>
</linearGradient>
<linearGradient id="paint2_linear" x1="93.6811" y1="93.5516" x2="175.784" y2="180.268" gradientUnits="userSpaceOnUse">
<stop offset="0.458333" stop-color="#9E9EB1"/>
<stop offset="1" stop-color="#9595AE" stop-opacity="0.13"/>
</linearGradient>
<linearGradient id="paint3_linear" x1="93.6811" y1="93.5516" x2="175.784" y2="180.268" gradientUnits="userSpaceOnUse">
<stop offset="0.458333" stop-color="#9E9EB1"/>
<stop offset="1" stop-color="#9595AE" stop-opacity="0.13"/>
</linearGradient>
<linearGradient id="paint4_linear" x1="93.6811" y1="93.5516" x2="175.784" y2="180.268" gradientUnits="userSpaceOnUse">
<stop offset="0.458333" stop-color="#9E9EB1"/>
<stop offset="1" stop-color="#9595AE" stop-opacity="0.13"/>
</linearGradient>
<linearGradient id="paint5_linear" x1="93.6811" y1="93.5516" x2="175.784" y2="180.268" gradientUnits="userSpaceOnUse">
<stop offset="0.458333" stop-color="#9E9EB1"/>
<stop offset="1" stop-color="#9595AE" stop-opacity="0.13"/>
</linearGradient>
</defs>
</svg>
