<svg width="278" height="278" viewBox="0 0 278 278" fill="none" xmlns="http://www.w3.org/2000/svg">
<g filter="url(#filter0_dd)">
<rect x="51.8413" y="51.8265" width="173.701" height="173.701" rx="46.435" fill="#EBECF0"/>
<rect x="51.8413" y="51.8265" width="173.701" height="173.701" rx="46.435" fill="url(#paint0_linear)" fill-opacity="0.4" style="mix-blend-mode:soft-light"/>
</g>
<path d="M143.517 93.5798V103.041C156.087 105.196 165.653 116.146 165.653 129.331V136.695C165.653 142.073 166.325 147.408 167.636 152.579L158.309 152.579C157.162 147.383 156.577 142.058 156.577 136.695V129.331C156.577 119.612 148.698 111.733 138.979 111.733C129.26 111.733 121.381 119.612 121.381 129.331V136.695C121.381 145.234 119.884 153.68 116.985 161.656L179.824 161.656V170.733L98.1331 170.733V161.656H107.234C110.572 153.777 112.304 145.29 112.304 136.695V129.331C112.304 116.146 121.87 105.196 134.44 103.041L134.44 93.5798H143.517Z" fill="url(#paint1_linear)"/>
<path d="M148.055 184.348V175.271H129.902V184.348H148.055Z" fill="url(#paint2_linear)"/>
<defs>
<filter id="filter0_dd" x="0.246897" y="0.232126" width="276.89" height="276.89" filterUnits="userSpaceOnUse" color-interpolation-filters="sRGB">
<feFlood flood-opacity="0" result="BackgroundImageFix"/>
<feColorMatrix in="SourceAlpha" type="matrix" values="0 0 0 0 0 0 0 0 0 0 0 0 0 0 0 0 0 0 127 0"/>
<feOffset dx="17.1981" dy="17.1981"/>
<feGaussianBlur stdDeviation="17.1981"/>
<feColorMatrix type="matrix" values="0 0 0 0 0.6512 0 0 0 0 0.66896 0 0 0 0 0.74 0 0 0 1 0"/>
<feBlend mode="normal" in2="BackgroundImageFix" result="effect1_dropShadow"/>
<feColorMatrix in="SourceAlpha" type="matrix" values="0 0 0 0 0 0 0 0 0 0 0 0 0 0 0 0 0 0 127 0"/>
<feOffset dx="-17.1981" dy="-17.1981"/>
<feGaussianBlur stdDeviation="17.1981"/>
<feColorMatrix type="matrix" values="0 0 0 0 0.979167 0 0 0 0 0.983333 0 0 0 0 1 0 0 0 1 0"/>
<feBlend mode="normal" in2="effect1_dropShadow" result="effect2_dropShadow"/>
<feBlend mode="normal" in="SourceGraphic" in2="effect2_dropShadow" result="shape"/>
</filter>
<linearGradient id="paint0_linear" x1="-35.0093" y1="138.677" x2="138.692" y2="312.378" gradientUnits="userSpaceOnUse">
<stop/>
<stop offset="1" stop-color="white"/>
</linearGradient>
<linearGradient id="paint1_linear" x1="97.9338" y1="93.4759" x2="181.845" y2="171.452" gradientUnits="userSpaceOnUse">
<stop offset="0.458333" stop-color="#9E9EB1"/>
<stop offset="1" stop-color="#9595AE" stop-opacity="0.13"/>
</linearGradient>
<linearGradient id="paint2_linear" x1="97.9338" y1="93.4759" x2="181.845" y2="171.452" gradientUnits="userSpaceOnUse">
<stop offset="0.458333" stop-color="#9E9EB1"/>
<stop offset="1" stop-color="#9595AE" stop-opacity="0.13"/>
</linearGradient>
</defs>
</svg>
