<svg width="278" height="278" viewBox="0 0 278 278" fill="none" xmlns="http://www.w3.org/2000/svg">
<g filter="url(#filter0_dd)">
<rect x="51.7656" y="52.5186" width="173.701" height="173.701" rx="46.435" fill="#EBECF0"/>
<rect x="51.7656" y="52.5186" width="173.701" height="173.701" rx="46.435" fill="url(#paint0_linear)" fill-opacity="0.4" style="mix-blend-mode:soft-light"/>
</g>
<path d="M162.092 111.719C146.663 98.9117 123.773 101.037 110.966 116.467C98.159 131.896 100.285 154.786 115.714 167.593L109.917 174.577C90.6301 158.568 87.973 129.956 103.982 110.669C119.991 91.3828 148.603 88.7257 167.889 104.734L162.092 111.719Z" fill="url(#paint1_linear)"/>
<path d="M158.639 170.142C161.653 168.19 164.425 165.754 166.84 162.845C167.595 161.935 168.299 160.999 168.951 160.04L175.429 166.594C174.917 167.287 174.382 167.97 173.824 168.642C171.227 171.772 168.297 174.463 165.13 176.708L158.639 170.142Z" fill="url(#paint2_linear)"/>
<path d="M149.919 174.256C138.528 177.871 125.592 175.792 115.714 167.593L109.917 174.577C123.507 185.858 141.729 187.87 156.908 181.326L149.919 174.256Z" fill="url(#paint3_linear)"/>
<path d="M180.207 158.491L173.25 151.454C178.009 137.593 174.037 121.634 162.092 111.719L167.889 104.734C184.011 118.116 188.513 140.304 180.207 158.491Z" fill="url(#paint4_linear)"/>
<path d="M134.365 112.425H143.441V135.117H161.595V144.194L134.365 144.194V112.425Z" fill="url(#paint5_linear)"/>
<defs>
<filter id="filter0_dd" x="0.171213" y="0.924143" width="276.89" height="276.89" filterUnits="userSpaceOnUse" color-interpolation-filters="sRGB">
<feFlood flood-opacity="0" result="BackgroundImageFix"/>
<feColorMatrix in="SourceAlpha" type="matrix" values="0 0 0 0 0 0 0 0 0 0 0 0 0 0 0 0 0 0 127 0"/>
<feOffset dx="17.1981" dy="17.1981"/>
<feGaussianBlur stdDeviation="17.1981"/>
<feColorMatrix type="matrix" values="0 0 0 0 0.6512 0 0 0 0 0.66896 0 0 0 0 0.74 0 0 0 1 0"/>
<feBlend mode="normal" in2="BackgroundImageFix" result="effect1_dropShadow"/>
<feColorMatrix in="SourceAlpha" type="matrix" values="0 0 0 0 0 0 0 0 0 0 0 0 0 0 0 0 0 0 127 0"/>
<feOffset dx="-17.1981" dy="-17.1981"/>
<feGaussianBlur stdDeviation="17.1981"/>
<feColorMatrix type="matrix" values="0 0 0 0 0.979167 0 0 0 0 0.983333 0 0 0 0 1 0 0 0 1 0"/>
<feBlend mode="normal" in2="effect1_dropShadow" result="effect2_dropShadow"/>
<feBlend mode="normal" in="SourceGraphic" in2="effect2_dropShadow" result="shape"/>
</filter>
<linearGradient id="paint0_linear" x1="-35.085" y1="139.369" x2="138.616" y2="313.07" gradientUnits="userSpaceOnUse">
<stop/>
<stop offset="1" stop-color="white"/>
</linearGradient>
<linearGradient id="paint1_linear" x1="93.2975" y1="94.1678" x2="175.4" y2="180.884" gradientUnits="userSpaceOnUse">
<stop offset="0.458333" stop-color="#9E9EB1"/>
<stop offset="1" stop-color="#9595AE" stop-opacity="0.13"/>
</linearGradient>
<linearGradient id="paint2_linear" x1="93.2975" y1="94.1678" x2="175.4" y2="180.884" gradientUnits="userSpaceOnUse">
<stop offset="0.458333" stop-color="#9E9EB1"/>
<stop offset="1" stop-color="#9595AE" stop-opacity="0.13"/>
</linearGradient>
<linearGradient id="paint3_linear" x1="93.2975" y1="94.1678" x2="175.4" y2="180.884" gradientUnits="userSpaceOnUse">
<stop offset="0.458333" stop-color="#9E9EB1"/>
<stop offset="1" stop-color="#9595AE" stop-opacity="0.13"/>
</linearGradient>
<linearGradient id="paint4_linear" x1="93.2975" y1="94.1678" x2="175.4" y2="180.884" gradientUnits="userSpaceOnUse">
<stop offset="0.458333" stop-color="#9E9EB1"/>
<stop offset="1" stop-color="#9595AE" stop-opacity="0.13"/>
</linearGradient>
<linearGradient id="paint5_linear" x1="93.2975" y1="94.1678" x2="175.4" y2="180.884" gradientUnits="userSpaceOnUse">
<stop offset="0.458333" stop-color="#9E9EB1"/>
<stop offset="1" stop-color="#9595AE" stop-opacity="0.13"/>
</linearGradient>
</defs>
</svg>
